<svg xmlns="http://www.w3.org/2000/svg" width="48" height="48" viewBox="0 0 48 48" fill="none">
  <path d="M36 24c0 8.837-7.163 16-16 16a16.03 16.03 0 0 1-10.196-3.658C12.467 39.322 16.592 41 21.1 41c8.837 0 16-7.163 16-16 0-4.508-1.678-8.633-4.542-11.296A15.96 15.96 0 0 1 36 24z" fill="#6B5B8B"/>
  <path d="M36 24c0 8.837-7.163 16-16 16a16.03 16.03 0 0 1-10.196-3.658C12.467 39.322 16.592 41 21.1 41c8.837 0 16-7.163 16-16 0-4.508-1.678-8.633-4.542-11.296A15.96 15.96 0 0 1 36 24z" fill="#6B5B8B" opacity="0.3"/>
</svg>
